<?xml version="1.0" standalone="no"?>
<!DOCTYPE svg PUBLIC "-//W3C//DTD SVG 20010904//EN"
 "http://www.w3.org/TR/2001/REC-SVG-20010904/DTD/svg10.dtd">
<svg version="1.0" xmlns="http://www.w3.org/2000/svg"
 width="260.000000pt" height="260.000000pt" viewBox="0 0 260.000000 260.000000"
 preserveAspectRatio="xMidYMid meet">
<metadata>
Created by potrace 1.11, written by Peter Selinger 2001-2013
</metadata>
<g transform="translate(0.000000,260.000000) scale(0.100000,-0.100000)"
fill="#000000" stroke="none">
<path d="M1348 2593 c17 -2 47 -2 65 0 17 2 3 4 -33 4 -36 0 -50 -2 -32 -4z"/>
<path d="M1108 2563 c7 -3 16 -2 19 1 4 3 -2 6 -13 5 -11 0 -14 -3 -6 -6z"/>
<path d="M1638 2563 c7 -3 16 -2 19 1 4 3 -2 6 -13 5 -11 0 -14 -3 -6 -6z"/>
<path d="M1957 2449 c7 -7 15 -10 18 -7 3 3 -2 9 -12 12 -14 6 -15 5 -6 -5z"/>
<path d="M699 2389 l-24 -20 28 17 c15 9 27 18 27 20 0 8 -8 4 -31 -17z"/>
<path d="M2110 2356 c0 -2 8 -10 18 -17 15 -13 16 -12 3 4 -13 16 -21 21 -21
13z"/>
<path d="M614 2328 l-19 -23 23 19 c21 18 27 26 19 26 -2 0 -12 -10 -23 -22z"/>
<path d="M2225 2250 c38 -38 72 -70 74 -70 3 0 -26 32 -64 70 -38 39 -72 70
-74 70 -3 0 26 -31 64 -70z"/>
<path d="M525 2248 l-50 -53 53 50 c28 27 52 51 52 52 0 8 -9 -1 -55 -49z"/>
<path d="M444 2158 l-19 -23 23 19 c12 11 22 21 22 23 0 8 -8 2 -26 -19z"/>
<path d="M2310 2156 c0 -2 8 -10 18 -17 15 -13 16 -12 3 4 -13 16 -21 21 -21
13z"/>
<path d="M2380 2060 c6 -11 13 -20 16 -20 2 0 0 9 -6 20 -6 11 -13 20 -16 20
-2 0 0 -9 6 -20z"/>
<path d="M2258 2011 l4 -39 34 20 c19 11 34 22 34 24 0 3 -67 34 -74 34 -1 0
0 -18 2 -39z"/>
<path d="M350 2020 c-6 -11 -8 -20 -6 -20 3 0 10 9 16 20 6 11 8 20 6 20 -3 0
-10 -9 -16 -20z"/>
<path d="M2019 2013 c-15 -4 -15 -8 2 -41 21 -39 24 -68 10 -76 -5 -3 -12 10
-15 29 -10 50 -68 79 -140 70 -64 -9 -81 -24 -97 -86 -14 -56 -35 -67 -25 -14
6 32 5 35 -34 55 -38 20 -46 20 -120 9 l-80 -12 0 -143 c0 -78 -3 -149 -6
-157 -4 -13 -12 -13 -52 -2 -26 6 -62 20 -80 29 -18 9 -41 16 -50 14 -11 -2 1
-12 31 -27 28 -13 57 -37 68 -55 21 -34 24 -56 9 -56 -5 0 -10 9 -10 20 0 14
-14 27 -44 42 -42 20 -46 20 -69 5 -14 -9 -32 -35 -40 -59 -13 -37 -16 -39
-16 -16 -1 43 -63 70 -133 60 l-53 -7 -3 -58 c-4 -71 -16 -78 -82 -47 -26 12
-54 20 -61 18 -8 -3 3 -13 26 -24 26 -12 46 -32 57 -54 10 -19 18 -28 18 -19
0 11 11 18 30 21 l30 5 0 -270 0 -269 58 6 c31 4 145 18 252 31 107 14 269 34
360 45 91 12 222 28 293 37 l127 16 0 473 0 474 -40 20 c-36 19 -82 24 -121
13z m78 -415 c-3 -8 -6 -5 -6 6 -1 11 2 17 5 13 3 -3 4 -12 1 -19z m-90 -44
c-1 -1 -24 -18 -51 -39 -47 -35 -55 -28 -9 8 13 10 21 22 19 25 -2 4 6 7 19 7
13 0 23 -1 22 -1z m-112 -74 c3 -5 2 -10 -4 -10 -5 0 -13 5 -16 10 -3 6 -2 10
4 10 5 0 13 -4 16 -10z m-55 -47 c-8 -3 -35 -23 -60 -43 -53 -43 -89 -64 -45
-25 17 14 29 30 27 36 -1 6 2 8 7 4 6 -3 19 3 31 15 11 11 28 20 38 19 13 0
14 -2 2 -6z m-141 -106 c0 -9 -2 -8 -6 1 -2 6 -10 9 -15 6 -7 -4 -8 -2 -4 5 9
13 26 5 25 -12z m-180 -38 c-28 -22 -43 -24 -33 -6 4 7 3 9 -2 4 -5 -5 -9 -12
-9 -15 -1 -18 -17 -31 -33 -25 -9 3 -14 3 -10 -2 8 -9 -15 -35 -31 -35 -6 0
-11 -4 -11 -9 0 -5 -8 -12 -18 -15 -10 -4 -36 -22 -58 -41 -26 -23 -46 -33
-59 -30 -11 3 -14 2 -7 -1 10 -5 10 -9 1 -20 -15 -18 -26 -18 -26 1 0 26 36
50 80 54 5 1 6 5 3 9 -6 10 47 52 64 52 5 0 10 5 10 10 0 6 7 10 15 10 8 0 15
4 15 9 0 5 23 26 51 46 28 20 48 32 44 26 -3 -6 -2 -11 4 -11 5 0 13 10 17 23
7 20 8 20 12 3 3 -12 -5 -26 -19 -37z m-303 -201 c-3 -22 -17 -38 -32 -38 -17
0 -14 21 6 37 19 16 29 16 26 1z"/>
<path d="M231 1704 c0 -11 3 -14 6 -6 3 7 2 16 -1 19 -3 4 -6 -2 -5 -13z"/>
<path d="M213 1505 c0 -44 2 -61 4 -37 2 23 2 59 0 80 -2 20 -4 1 -4 -43z"/>
<path d="M907 1442 c-27 -29 -21 -34 34 -27 39 5 49 4 44 -6 -5 -8 -4 -10 3
-5 19 12 14 25 -18 41 -37 19 -43 19 -63 -3z"/>
<path d="M728 1443 c-27 -4 -28 -7 -28 -64 0 -65 -10 -73 -60 -44 -14 8 -34
14 -45 14 -13 0 -5 -7 22 -19 22 -10 45 -25 50 -33 4 -8 19 -14 31 -13 l24 1
2 -213 c2 -116 5 -215 8 -218 10 -9 89 16 83 26 -7 11 -16 91 -16 130 0 14 2
91 4 173 1 81 -1 147 -5 147 -11 0 -6 54 7 62 17 12 47 9 39 -4 -4 -7 -3 -8 4
-4 22 13 12 32 -23 49 -35 17 -45 18 -97 10z"/>
<path d="M1000 1380 c0 -5 4 -10 9 -10 6 0 13 5 16 10 3 6 -1 10 -9 10 -9 0
-16 -4 -16 -10z"/>
<path d="M857 1373 c-12 -11 -8 -23 8 -23 8 0 15 7 15 15 0 16 -12 20 -23 8z"/>
<path d="M443 1302 l-33 -3 0 -214 0 -215 40 -20 c21 -11 42 -20 45 -20 3 0 5
96 5 214 l0 215 28 3 c27 3 26 4 -13 23 -23 12 -54 19 -72 17z"/>
<path d="M590 1285 c-11 -13 -9 -15 11 -11 13 3 31 5 39 6 10 1 9 4 -5 10 -28
12 -31 12 -45 -5z"/>
<path d="M216 1261 c-17 -6 -15 -10 14 -34 18 -16 34 -26 37 -24 2 2 8 18 13
36 8 29 7 31 -18 30 -15 0 -35 -4 -46 -8z"/>
<path d="M550 1230 c0 -5 5 -10 10 -10 6 0 10 5 10 10 0 6 -4 10 -10 10 -5 0
-10 -4 -10 -10z"/>
<path d="M1008 893 c7 -3 16 -2 19 1 4 3 -2 6 -13 5 -11 0 -14 -3 -6 -6z"/>
<path d="M2364 728 l-19 -23 23 19 c21 18 27 26 19 26 -2 0 -12 -10 -23 -22z"/>
<path d="M2249 613 l-24 -28 28 24 c15 14 27 26 27 28 0 8 -8 1 -31 -24z"/>
<path d="M2062 495 c-13 -27 -1 -34 28 -15 13 8 13 11 -1 25 -14 14 -16 13
-27 -10z"/>
<path d="M1855 418 c-50 -26 -47 -22 -39 -41 5 -13 10 -14 26 -6 11 6 21 9 22
7 2 -2 27 -47 57 -100 50 -90 70 -111 83 -90 3 5 -20 52 -51 106 -51 90 -54
99 -39 115 16 18 12 31 -8 31 -6 -1 -29 -10 -51 -22z"/>
<path d="M647 277 c-44 -100 -52 -124 -40 -130 17 -10 13 -15 46 53 l27 55 -3
-69 c-1 -39 2 -70 8 -72 6 -2 28 19 50 46 22 27 43 49 47 50 4 0 -4 -26 -17
-57 -20 -44 -23 -58 -13 -64 7 -5 16 -5 19 -1 6 6 109 231 109 237 0 2 -7 5
-15 9 -10 3 -29 -9 -53 -36 -20 -23 -52 -58 -70 -78 l-33 -35 5 30 c3 17 8 62
11 101 6 58 4 72 -8 77 -11 4 -29 -25 -70 -116z"/>
<path d="M1748 364 c-4 -3 2 -24 13 -47 17 -39 17 -43 2 -54 -24 -19 -26 -17
-46 32 -17 41 -34 54 -49 39 -11 -10 98 -239 115 -242 23 -5 21 7 -8 69 -18
40 -21 55 -12 61 25 16 36 7 61 -47 24 -52 38 -66 50 -46 8 12 -41 121 -54
121 -5 0 -10 11 -10 25 0 51 -41 110 -62 89z"/>
<path d="M1597 313 c-4 -3 -7 -38 -8 -77 -1 -39 -4 -82 -8 -95 -6 -22 -11 -16
-56 57 -32 53 -56 82 -67 82 -10 0 -18 -2 -18 -5 0 -32 65 -255 75 -255 22 0
24 11 9 58 -22 75 -16 81 22 20 20 -32 42 -58 49 -58 9 0 15 23 21 73 l7 72
16 -64 c16 -61 32 -84 45 -63 9 15 -56 262 -69 262 -7 0 -15 -3 -18 -7z"/>
<path d="M1364 239 c-10 -17 13 -36 27 -22 12 12 4 33 -11 33 -5 0 -12 -5 -16
-11z"/>
<path d="M910 221 c0 -13 8 -21 22 -23 37 -5 34 -33 -3 -35 -41 -3 -69 -29
-69 -64 0 -32 28 -55 74 -61 28 -3 30 0 48 62 10 36 18 70 18 76 0 20 -34 52
-62 58 -23 5 -28 3 -28 -13z m40 -104 c0 -7 -6 -21 -13 -30 -11 -16 -15 -16
-32 -3 -16 12 -17 16 -6 30 16 19 51 21 51 3z"/>
<path d="M1071 176 c-7 -8 -17 -44 -23 -81 -9 -55 -9 -68 3 -75 18 -12 25 2
32 68 7 63 12 72 38 72 10 0 19 7 19 15 0 20 -53 20 -69 1z"/>
<path d="M1194 168 c3 -13 13 -56 22 -95 12 -56 20 -73 33 -73 13 0 22 21 40
91 13 50 21 93 17 96 -14 14 -34 -9 -40 -46 -7 -45 -26 -65 -26 -27 0 38 -18
76 -36 76 -12 0 -15 -6 -10 -22z"/>
<path d="M1375 113 c8 -96 10 -103 31 -103 15 0 16 9 10 73 -9 90 -14 107 -32
107 -12 0 -14 -13 -9 -77z"/>
</g>
</svg>
