<?xml version="1.0" standalone="no"?>
<!DOCTYPE svg PUBLIC "-//W3C//DTD SVG 20010904//EN"
 "http://www.w3.org/TR/2001/REC-SVG-20010904/DTD/svg10.dtd">
<svg version="1.0" xmlns="http://www.w3.org/2000/svg"
 width="260.000000pt" height="260.000000pt" viewBox="0 0 260.000000 260.000000"
 preserveAspectRatio="xMidYMid meet">
<metadata>
Created by potrace 1.11, written by Peter Selinger 2001-2013
</metadata>
<g transform="translate(0.000000,260.000000) scale(0.100000,-0.100000)"
fill="#000000" stroke="none">
<path d="M0 1300 l0 -1300 503 0 503 0 -4 36 c-6 51 30 214 48 214 15 0 22
-96 11 -155 -19 -103 -30 -95 125 -95 l137 0 -5 78 c-3 42 -13 95 -22 116 -15
36 -15 41 3 81 18 42 53 85 69 85 4 0 7 -21 7 -47 0 -38 3 -47 15 -45 8 2 27
5 43 7 34 5 35 -3 2 -141 -14 -58 -25 -112 -25 -120 0 -12 89 -14 595 -14
l595 0 0 1300 0 1300 -1300 0 -1300 0 0 -1300z m495 1060 c-3 -5 -11 -10 -16
-10 -6 0 -7 5 -4 10 3 6 11 10 16 10 6 0 7 -4 4 -10z m435 -205 c0 -11 10 -14
46 -10 25 2 60 9 79 15 30 10 36 8 60 -15 16 -14 32 -25 36 -25 5 0 9 -8 9
-18 0 -10 5 -23 12 -30 9 -9 8 -15 -8 -28 -10 -8 -13 -13 -6 -9 7 4 12 -1 12
-14 0 -10 -5 -21 -11 -23 -13 -4 21 -90 40 -102 6 -4 11 -14 11 -23 0 -13 -8
-15 -42 -10 -24 3 -44 10 -46 16 -3 10 -113 3 -122 -9 -3 -3 -25 -12 -50 -19
-43 -12 -110 -61 -110 -80 0 -15 -34 -22 -87 -20 -67 2 -175 -43 -225 -94 -21
-22 -38 -43 -38 -47 0 -14 -31 -41 -40 -35 -4 3 -11 32 -15 65 -4 33 -12 60
-17 60 -16 0 -48 41 -50 64 -3 40 3 60 21 77 10 10 28 49 40 87 11 38 26 74
33 79 13 10 50 18 137 30 24 3 52 14 62 24 23 23 55 25 63 3 5 -13 9 -14 22
-4 11 10 12 15 3 20 -14 9 -2 33 14 27 6 -2 22 7 35 20 14 14 35 23 55 23 18
0 39 5 47 10 21 14 30 12 30 -5z m-580 -345 c0 -5 -4 -10 -10 -10 -5 0 -10 5
-10 10 0 6 5 10 10 10 6 0 10 -4 10 -10z m1040 -120 c0 -5 -7 -10 -15 -10 -8
0 -15 5 -15 10 0 6 7 10 15 10 8 0 15 -4 15 -10z m20 -73 c0 -8 6 -17 14 -20
24 -9 14 -83 -14 -109 -21 -20 -34 -22 -149 -23 -76 -1 -134 -6 -146 -13 l-20
-11 20 -1 c11 0 31 -10 45 -21 l25 -21 -24 -19 c-13 -10 -37 -19 -54 -19 -17
0 -39 -8 -50 -17 -27 -25 -129 -20 -164 7 -14 11 -34 20 -44 20 -16 0 -16 3
-4 28 8 15 18 70 22 122 9 109 18 116 75 65 46 -42 112 -65 186 -65 70 0 112
14 177 61 45 33 55 52 33 63 -7 3 -1 4 15 2 15 -2 27 1 27 6 0 5 7 3 15 -6 8
-8 15 -21 15 -29z m-634 -289 c4 -6 2 -14 -4 -16 -7 -2 -12 -15 -12 -30 0 -19
-16 -41 -55 -79 -52 -48 -58 -51 -85 -42 -52 19 -57 36 -16 60 20 11 36 25 36
30 0 5 7 9 15 9 8 0 30 14 48 30 19 17 40 30 46 30 7 0 9 5 6 10 -3 6 -2 10 4
10 5 0 13 -5 17 -12z m131 -14 c7 -19 -23 -51 -52 -56 -15 -2 -21 3 -23 21 -6
41 61 72 75 35z m354 -15 c25 -13 16 -29 -17 -29 -17 0 -24 5 -24 20 0 22 12
25 41 9z m-56 -189 c-3 -5 -11 -10 -16 -10 -6 0 -7 5 -4 10 3 6 11 10 16 10 6
0 7 -4 4 -10z m152 -42 c-3 -8 -6 -5 -6 6 -1 11 2 17 5 13 3 -3 4 -12 1 -19z
m313 -27 c18 -36 18 -42 5 -75 -16 -38 -28 -47 -24 -18 1 9 -3 30 -9 45 -13
32 -15 48 -6 71 9 23 11 21 34 -23z m-240 -22 c0 -4 -6 -12 -13 -16 -8 -4 -21
-20 -31 -34 -12 -20 -22 -25 -41 -21 -38 7 -31 39 8 33 4 0 7 7 7 17 0 10 5
23 11 29 11 11 59 5 59 -8z m-42 -444 c3 -3 -2 -5 -11 -5 -9 0 -17 -4 -17 -10
0 -5 5 -9 11 -7 6 1 14 -4 17 -12 3 -10 -4 -9 -27 5 -31 18 -36 26 -25 37 6 6
43 1 52 -8z m-465 -51 l47 -16 -21 -34 c-15 -25 -20 -47 -17 -79 2 -25 2 -45
2 -45 -1 0 -10 17 -21 38 -10 20 -34 63 -52 95 l-33 57 24 0 c14 0 46 -7 71
-16z m587 -34 c8 11 9 7 4 -15 -9 -43 -24 -55 -24 -19 0 19 -3 25 -9 16 -6
-10 -10 -10 -21 3 -11 13 -10 15 4 9 10 -4 16 -1 16 7 0 11 3 11 10 -1 9 -13
11 -13 20 0z"/>
</g>
</svg>
