<?xml version="1.0" standalone="no"?>
<!DOCTYPE svg PUBLIC "-//W3C//DTD SVG 20010904//EN"
 "http://www.w3.org/TR/2001/REC-SVG-20010904/DTD/svg10.dtd">
<svg version="1.0" xmlns="http://www.w3.org/2000/svg"
 width="80.000000pt" height="174.000000pt" viewBox="0 0 80.000000 174.000000"
 preserveAspectRatio="xMidYMid meet">
<metadata>
Created by potrace 1.10, written by Peter Selinger 2001-2011
</metadata>
<g transform="translate(0.000000,174.000000) scale(0.100000,-0.100000)"
fill="#000000" stroke="none">
<path d="M7 1733 c-10 -9 -9 -1733 1 -1733 5 0 35 28 67 62 33 35 93 99 134
143 41 44 107 114 146 155 39 41 131 140 205 220 74 79 159 169 187 200 l53
55 -3 450 -2 450 -391 3 c-215 1 -393 -1 -397 -5z m773 -450 l0 -438 -211
-225 c-117 -124 -269 -286 -338 -360 -70 -74 -146 -155 -169 -180 l-41 -45 -1
843 0 842 380 0 380 0 0 -437z"/>
<path d="M66 1654 c-8 -21 -8 -24 4 -24 6 0 10 6 10 14 0 8 6 17 13 19 7 4 6
6 -4 6 -9 1 -20 -6 -23 -15z"/>
<path d="M163 1663 c9 -2 25 -2 35 0 9 3 1 5 -18 5 -19 0 -27 -2 -17 -5z"/>
<path d="M273 1663 c9 -2 25 -2 35 0 9 3 1 5 -18 5 -19 0 -27 -2 -17 -5z"/>
<path d="M383 1663 c9 -2 25 -2 35 0 9 3 1 5 -18 5 -19 0 -27 -2 -17 -5z"/>
<path d="M493 1663 c9 -2 25 -2 35 0 9 3 1 5 -18 5 -19 0 -27 -2 -17 -5z"/>
<path d="M598 1663 c12 -2 30 -2 40 0 9 3 -1 5 -23 4 -22 0 -30 -2 -17 -4z"/>
<path d="M702 1663 c9 -2 19 -12 21 -21 3 -12 5 -10 6 6 1 17 -4 22 -21 21
-16 -1 -18 -3 -6 -6z"/>
<path d="M64 1560 c-1 -17 3 -30 7 -30 5 0 9 14 9 30 0 39 -15 39 -16 0z"/>
<path d="M722 1560 c0 -19 2 -27 5 -17 2 9 2 25 0 35 -3 9 -5 1 -5 -18z"/>
<path d="M172 1023 c2 -410 6 -527 16 -531 9 -3 12 107 12 527 0 467 -2 531
-15 531 -13 0 -15 -63 -13 -527z"/>
<path d="M602 1253 c2 -190 7 -298 13 -298 6 0 11 108 13 298 2 261 0 297 -13
297 -13 0 -15 -36 -13 -297z"/>
<path d="M240 1504 c0 -5 13 -36 80 -179 23 -49 50 -109 61 -132 11 -24 22
-43 24 -43 4 0 85 167 85 175 0 2 18 42 40 89 45 97 45 96 26 96 -8 0 -18 -10
-22 -22 -4 -12 -29 -70 -55 -128 -27 -58 -55 -117 -62 -132 -13 -30 -3 -48
-142 259 -9 20 -35 33 -35 17z"/>
<path d="M65 1465 c2 -37 15 -43 15 -7 0 18 -4 32 -8 32 -4 0 -7 -11 -7 -25z"/>
<path d="M722 1460 c0 -19 2 -27 5 -17 2 9 2 25 0 35 -3 9 -5 1 -5 -18z"/>
<path d="M69 1398 c-5 -16 -3 -58 3 -58 4 0 8 14 8 30 0 17 -2 30 -5 30 -3 0
-5 -1 -6 -2z"/>
<path d="M722 1360 c0 -19 2 -27 5 -17 2 9 2 25 0 35 -3 9 -5 1 -5 -18z"/>
<path d="M69 1298 c-6 -24 -5 -58 2 -58 5 0 9 14 9 30 0 17 -2 30 -5 30 -3 0
-5 -1 -6 -2z"/>
<path d="M723 1255 c0 -22 2 -30 4 -17 2 12 2 30 0 40 -3 9 -5 -1 -4 -23z"/>
<path d="M63 1170 c0 -16 4 -30 9 -30 4 0 8 14 8 30 0 17 -4 30 -8 30 -5 0 -9
-13 -9 -30z"/>
<path d="M722 1150 c0 -19 2 -27 5 -17 2 9 2 25 0 35 -3 9 -5 1 -5 -18z"/>
<path d="M65 1075 c2 -37 15 -43 15 -7 0 18 -4 32 -8 32 -4 0 -7 -11 -7 -25z"/>
<path d="M722 1050 c0 -19 2 -27 5 -17 2 9 2 25 0 35 -3 9 -5 1 -5 -18z"/>
<path d="M65 975 c0 -14 3 -25 8 -25 4 0 7 11 7 25 0 14 -3 25 -7 25 -5 0 -8
-11 -8 -25z"/>
<path d="M722 950 c0 -19 2 -27 5 -17 2 9 2 25 0 35 -3 9 -5 1 -5 -18z"/>
<path d="M69 908 c-5 -16 -3 -58 3 -58 4 0 8 14 8 30 0 17 -2 30 -5 30 -3 0
-5 -1 -6 -2z"/>
<path d="M695 860 c-10 -11 -16 -22 -14 -24 2 -2 12 7 22 20 22 29 17 32 -8 4z"/>
<path d="M64 780 c-1 -17 3 -30 7 -30 5 0 9 14 9 30 0 39 -15 39 -16 0z"/>
<path d="M620 785 c-13 -14 -19 -25 -13 -25 12 0 48 38 41 45 -2 3 -15 -6 -28
-20z"/>
<path d="M556 712 l-19 -27 24 22 c12 12 21 24 18 27 -2 2 -13 -8 -23 -22z"/>
<path d="M64 680 c-1 -17 3 -30 7 -30 5 0 9 14 9 30 0 39 -15 39 -16 0z"/>
<path d="M485 640 c-10 -11 -16 -22 -13 -25 3 -3 13 4 23 15 10 11 16 22 13
25 -3 3 -13 -4 -23 -15z"/>
<path d="M64 580 c-1 -17 3 -30 7 -30 5 0 9 14 9 30 0 39 -15 39 -16 0z"/>
<path d="M425 576 c-23 -25 -26 -40 -4 -19 12 12 21 24 18 27 -2 2 -9 -1 -14
-8z"/>
<path d="M65 485 c2 -37 15 -43 15 -7 0 18 -4 32 -8 32 -4 0 -7 -11 -7 -25z"/>
<path d="M345 490 c-10 -11 -16 -22 -13 -25 3 -3 13 4 23 15 10 11 16 22 13
25 -3 3 -13 -4 -23 -15z"/>
<path d="M276 412 l-19 -27 24 22 c12 12 21 24 18 27 -2 2 -13 -8 -23 -22z"/>
<path d="M65 385 c0 -14 3 -25 8 -25 4 0 7 11 7 25 0 14 -3 25 -7 25 -5 0 -8
-11 -8 -25z"/>
<path d="M205 340 c-27 -30 -12 -34 15 -5 13 14 19 25 13 25 -5 0 -18 -9 -28
-20z"/>
<path d="M69 318 c-5 -16 -3 -58 3 -58 4 0 8 14 8 30 0 17 -2 30 -5 30 -3 0
-5 -1 -6 -2z"/>
<path d="M143 278 c-24 -32 -24 -41 0 -19 15 14 27 26 27 28 0 8 -19 2 -27 -9z"/>
<path d="M70 200 c0 -19 3 -21 12 -12 9 9 9 15 0 24 -9 9 -12 7 -12 -12z"/>
</g>
</svg>
